<?xml version="1.0" encoding="utf-8"?>
<!-- Generator: Adobe Illustrator 16.0.4, SVG Export Plug-In . SVG Version: 6.00 Build 0)  -->
<!DOCTYPE svg PUBLIC "-//W3C//DTD SVG 1.1//EN" "http://www.w3.org/Graphics/SVG/1.1/DTD/svg11.dtd">
<svg version="1.1" xmlns="http://www.w3.org/2000/svg" xmlns:xlink="http://www.w3.org/1999/xlink" x="0px" y="0px"
	 width="341.22px" height="399.6px" viewBox="0 0 341.22 399.6" enable-background="new 0 0 341.22 399.6" xml:space="preserve">
<g id="temp">
</g>
<g id="body">
</g>
<g id="artwork">
	<radialGradient id="SVGID_1_" cx="116.0557" cy="109.4849" r="103.6844" gradientUnits="userSpaceOnUse">
		<stop  offset="0.764" style="stop-color:#FADCEB"/>
		<stop  offset="1" style="stop-color:#C69DC9"/>
	</radialGradient>
	<path fill="url(#SVGID_1_)" stroke="#000000" stroke-linecap="round" stroke-linejoin="round" d="M45.88,18.98
		c-11.67,8.03-21.72,18.1-30.77,28.96c-16.3,20.83-16.3,46.17-8.15,70.61c9.06,28.06,25.34,52.5,48.88,69.71
		c22.62,17.2,58.81,25.34,85.95,19c57.02-13.58,90.5-76.03,71.5-131.26c-9.06-27.15-29.01-52.03-55.21-64.27
		c-13.58-6.34-24.43-9.96-38.91-10.86C108.33-0.03,74.84-0.93,45.88,18.98z"/>
	<path fill="#C69DC9" stroke="#000000" stroke-linecap="round" stroke-linejoin="round" d="M35.2,118.79
		c0-35.23,35.92-63.8,80.23-63.8c44.3,0,80.23,28.57,80.23,63.8c0,35.24-35.93,63.8-80.23,63.8
		C71.12,182.59,35.2,154.03,35.2,118.79z"/>
	<g>
		<g>
			<path fill="none" d="M16.96,85.46c-2.19-35.2,33-68.19,68.18-68.19"/>
			<path fill="#FFFFFF" d="M17.17,85.46C16.4,67.6,25.37,51.2,37.92,39.05c6.32-6.12,13.79-11.09,21.8-14.71
				c4.01-1.81,8.22-3.18,12.5-4.18c4.36-1.02,8.79-1.24,13.21-1.85c1.31-0.18,0.8-1.98-0.29-2.11c-8.73-1.09-18.29,2-26.19,5.42
				c-8.52,3.68-16.23,9.16-22.8,15.67c-12.7,12.57-20.61,30.17-19.4,48.18C16.76,85.73,17.19,85.74,17.17,85.46L17.17,85.46z"/>
		</g>
	</g>
	<path fill="#FFE596" stroke="#000000" d="M77.93,100.76c2.49-3.51,3.33-8.63,2.23-16.94c-0.14-1.03,1.2-3.92-3.46-2.4
		c-3.27,1.06-1.43,2.43-1.3,3.46c1.72,12.99,0.72,14.14-2.59,15.12c-0.1,0.03-0.18,0.07-0.27,0.11c-0.07,0.01-0.14,0.01-0.21,0.02
		c-4.01,0.9-4.78-0.15-8.15-12.13c-0.28-0.99,0.96-3.4-2.49-2.39c-5.01,1.47-2.44,3-2.16,3.99c2.34,8.28,4.84,12.25,8.47,13.96
		c-4.16,4.77-5.7,16.8-4.44,24.95c0.16,1.03-1.4,3.68,3.5,2.35c5.06-1.37,2.58-2.8,2.43-3.83c-1.09-7.02-2.29-20.94,3.63-22.66
		c0.09-0.03,0.18-0.07,0.27-0.11c0.09-0.01,0.19-0.02,0.28-0.05c5.74-1.54,10.12,10.93,11.88,18.3c0.24,1.01-0.47,3.47,3.62,2.16
		c4.8-1.55,2.49-2.94,2.25-3.94C89.8,113.96,83.9,102.96,77.93,100.76z"/>
	<path fill="#FFE596" stroke="#000000" d="M133.01,87.5c3.31-2.74,5.46-7.47,6.57-15.77c0.14-1.03,2.18-3.47-2.72-3.22
		c-3.43,0.17-2.02,1.97-2.16,3.01c-1.72,12.99-2.99,13.84-6.43,13.93c-0.1,0-0.19,0.02-0.29,0.04c-0.07-0.01-0.13-0.03-0.21-0.03
		c-4.1-0.17-4.57-1.38-4.71-13.83c-0.01-1.03,1.81-3.03-1.78-2.95c-5.22,0.11-3.14,2.26-3.13,3.29c0.1,8.6,1.48,13.09,4.54,15.68
		c-5.26,3.52-9.88,14.74-10.78,22.93c-0.11,1.03-2.31,3.19,2.77,3.18c5.25-0.01,3.23-2.03,3.34-3.06c0.78-7.06,3.24-20.81,9.4-20.93
		c0.1,0,0.19-0.02,0.29-0.03c0.09,0.01,0.19,0.03,0.28,0.03c5.94,0.01,6.93,13.19,6.71,20.76c-0.03,1.03-1.35,3.23,2.94,3.02
		c5.03-0.24,3.17-2.19,3.19-3.22C141.03,103.33,138.2,91.18,133.01,87.5z"/>
	<path fill="#FFE596" stroke="#000000" d="M141.76,139.8c3.32-2.74,5.46-7.47,6.57-15.77c0.14-1.03,2.18-3.47-2.72-3.22
		c-3.43,0.17-2.02,1.97-2.16,3c-1.72,12.99-2.99,13.84-6.43,13.93c-0.1,0-0.2,0.02-0.29,0.04c-0.07-0.01-0.13-0.03-0.21-0.03
		c-4.1-0.17-4.57-1.38-4.71-13.83c-0.01-1.03,1.81-3.03-1.78-2.96c-5.22,0.11-3.14,2.26-3.13,3.29c0.1,8.6,1.48,13.09,4.54,15.68
		c-5.26,3.52-9.88,14.74-10.78,22.93c-0.11,1.03-2.31,3.18,2.77,3.18c5.25-0.01,3.23-2.03,3.34-3.06c0.77-7.06,3.24-20.81,9.4-20.94
		c0.09,0,0.19-0.02,0.29-0.03c0.09,0.01,0.19,0.03,0.28,0.03c5.94,0.01,6.93,13.19,6.71,20.76c-0.03,1.04-1.35,3.23,2.93,3.03
		c5.03-0.24,3.17-2.19,3.19-3.22C149.78,155.63,146.95,143.48,141.76,139.8z"/>
	<path fill="#FFE596" stroke="#000000" stroke-linecap="round" stroke-linejoin="round" d="M142.65,315.16
		c5.99-8.78,11.68-4.14,11.68-4.14c-13.95-11.63-37.89-24.27-51.14-23.26c1.37-10.59-3.15-23.11-16.22-40.82
		c-1.62-2.2-2.15-10.15-11.14-1.81c-6.31,5.85-0.28,7.03,1.34,9.23c20.47,27.69,19.58,31.37,13.09,37.06
		c-0.19,0.17-0.34,0.35-0.49,0.54c-0.15,0.1-0.31,0.16-0.46,0.27c-8.22,6.27-11.35,4.7-34.41-18.97c-1.91-1.96-2.07-8.73-8.84-2.81
		c-9.86,8.61-1.91,9.38-0.01,11.34c15.94,16.34,26.83,22.74,37.47,22.79c-3.7,15.21,7.93,44.16,21.19,61.33
		c1.67,2.16,1.37,9.82,11.15,1.65c10.11-8.45,2.5-9.08,0.84-11.25c-11.44-14.8-31.86-45.14-20.2-55.28c0.18-0.15,0.34-0.34,0.5-0.53
		c0.2-0.12,0.41-0.24,0.6-0.4c9.36-7.78,29.23,7.41,43.24,21.04C140.86,321.15,139.82,319.33,142.65,315.16z"/>
	<path fill="#FFE596" stroke="#000000" d="M93.73,148.73c0.06-3.28-1.62-6.88-5.88-11.64c-0.53-0.59-0.93-2.98-3.22-0.02
		c-1.6,2.07,0.14,2.15,0.67,2.74c6.68,7.45,6.54,8.61,4.88,10.64c-0.05,0.06-0.09,0.12-0.12,0.19c-0.04,0.04-0.08,0.06-0.12,0.1
		c-2.14,2.29-3.07,1.97-10.36-4.14c-0.6-0.51-0.86-2.56-2.6-0.44c-2.53,3.08-0.25,2.94,0.36,3.45c5.04,4.21,8.33,5.64,11.35,5.15
		c-0.57,4.8,3.64,13.05,7.94,17.64c0.54,0.58,0.7,2.92,3.22-0.03c2.6-3.05,0.42-2.88-0.12-3.46c-3.71-3.96-10.46-12.21-7.47-15.85
		c0.05-0.06,0.08-0.12,0.12-0.18c0.06-0.05,0.11-0.09,0.16-0.15c2.95-3.44,11.09,2.53,15.37,6.42c0.58,0.53,1.2,2.39,3.21-0.2
		c2.36-3.04,0.31-2.92-0.28-3.45C106.9,151.94,98.44,147.55,93.73,148.73z"/>
	<path fill="#FFE596" stroke="#000000" d="M165.15,98.28c2.44-2.02,4.01-5.49,4.82-11.59c0.1-0.76,1.6-2.55-2-2.36
		c-2.52,0.13-1.48,1.45-1.59,2.21c-1.26,9.55-2.2,10.17-4.73,10.23c-0.07,0-0.14,0.02-0.21,0.03c-0.05-0.01-0.1-0.02-0.15-0.02
		c-3.02-0.13-3.36-1.02-3.46-10.17c-0.01-0.76,1.33-2.23-1.31-2.17c-3.84,0.08-2.31,1.66-2.3,2.42c0.07,6.32,1.09,9.62,3.34,11.52
		c-3.87,2.59-7.26,10.83-7.92,16.85c-0.08,0.76-1.7,2.34,2.03,2.33c3.86-0.01,2.37-1.49,2.46-2.25c0.57-5.19,2.38-15.29,6.91-15.38
		c0.07,0,0.14-0.01,0.21-0.02c0.07,0.01,0.14,0.02,0.21,0.02c4.36,0,5.09,9.69,4.93,15.26c-0.02,0.76-1,2.37,2.16,2.22
		c3.7-0.18,2.33-1.61,2.35-2.37C171.05,109.91,168.96,100.99,165.15,98.28z"/>
	<path fill="#FFE596" stroke="#000000" stroke-linecap="round" stroke-linejoin="round" d="M189.2,348.56
		c-3.54,7.38-24.56,11.41-24.56,11.41c5.34,2.12,24.3-2.34,29.82-11.55c6.88-11.47-3.22-20-12.12-15.95
		C182.33,332.48,195.21,336.02,189.2,348.56z"/>
	<path fill="#FFE596" stroke="#000000" stroke-linecap="round" stroke-linejoin="round" d="M202.94,350.2
		c-7.93,19.73-55.12,2.06-55.12,2.06c5.34,2.12,36.61,26.24,57.27,5.13c17.15-17.51-1.03-35-16.99-20.09
		C188.09,337.3,210.92,330.33,202.94,350.2z"/>
	<path fill="#FFE596" stroke="#000000" stroke-linecap="round" stroke-linejoin="round" d="M261.95,351.62
		c3.67,32.61-31.05,43.59-31.05,43.59c17.71-3.8,45.77-27.51,40.17-53.46c-6.17-28.52-39.07-20.41-46.21-11.8
		C224.86,329.95,258.03,316.74,261.95,351.62z"/>
	<path fill="#FFE596" stroke="#000000" stroke-linecap="round" stroke-linejoin="round" d="M233.48,357.85
		c-1.86,11.72-25.45,22.56-25.45,22.56c17.49-4.54,32.27-15.86,33.27-27.9c1.71-20.58-21.94-22.22-30.97-13
		C210.34,339.51,238.01,329.31,233.48,357.85z"/>
	
		<linearGradient id="SVGID_2_" gradientUnits="userSpaceOnUse" x1="101.4668" y1="375.0913" x2="66.5318" y2="389.4425" gradientTransform="matrix(-0.3612 -0.9325 0.9325 -0.3612 -70.7961 549.7326)">
		<stop  offset="5.618000e-03" style="stop-color:#FFE596"/>
		<stop  offset="0.5449" style="stop-color:#FFFFFF"/>
		<stop  offset="1" style="stop-color:#FFE596"/>
	</linearGradient>
	<path fill="url(#SVGID_2_)" stroke="#000000" stroke-linecap="round" stroke-linejoin="round" d="M257.56,360.57
		c39.32,4.39,64.46-14.84,64.46-14.84c-19.09,27.8-57.26,28.56-80.63,21.83c-12.24-3.52-36.1-17.21-16.53-37.61
		C224.86,329.95,214.91,355.81,257.56,360.57z"/>
	
		<linearGradient id="SVGID_3_" gradientUnits="userSpaceOnUse" x1="89.0791" y1="359.1021" x2="60.1343" y2="365.7376" gradientTransform="matrix(-0.3612 -0.9325 0.9325 -0.3612 -70.7961 549.7326)">
		<stop  offset="5.618000e-03" style="stop-color:#FFE596"/>
		<stop  offset="0.5449" style="stop-color:#FFFFFF"/>
		<stop  offset="1" style="stop-color:#FFE596"/>
	</linearGradient>
	<path fill="url(#SVGID_3_)" stroke="#000000" stroke-linecap="round" stroke-linejoin="round" d="M240.61,380.72
		c36.19,11.33,61.23-12.83,61.23-12.83c-17.68,24.58-48.49,26.42-72,20.13c-18.88-5.05-42.44-29.68-18.27-49.34
		C211.57,338.69,191.56,365.37,240.61,380.72z"/>
	
		<linearGradient id="SVGID_4_" gradientUnits="userSpaceOnUse" x1="116.042" y1="292.4429" x2="102.0317" y2="287.3492" gradientTransform="matrix(-0.3612 -0.9325 0.9325 -0.3612 -70.7961 549.7326)">
		<stop  offset="5.618000e-03" style="stop-color:#FFE596"/>
		<stop  offset="0.5449" style="stop-color:#FFFFFF"/>
		<stop  offset="1" style="stop-color:#FFE596"/>
	</linearGradient>
	<path fill="url(#SVGID_4_)" stroke="#000000" stroke-linecap="round" stroke-linejoin="round" d="M170.09,360.51
		c-9.63,1.91-17.13-7.14-15.94-23.14c1.52-20.46-2.59-26.97-4.29-27.51c0,0,4.05,0.97,4.47,1.17c8.6,4,5.63,20.4,5.47,28.16
		C159.45,356.4,170.09,360.51,170.09,360.51z"/>
	
		<linearGradient id="SVGID_5_" gradientUnits="userSpaceOnUse" x1="96.459" y1="312.7056" x2="81.6319" y2="308.8378" gradientTransform="matrix(-0.3612 -0.9325 0.9325 -0.3612 -70.7961 549.7326)">
		<stop  offset="5.618000e-03" style="stop-color:#FFE596"/>
		<stop  offset="0.5449" style="stop-color:#FFFFFF"/>
		<stop  offset="1" style="stop-color:#FFE596"/>
	</linearGradient>
	<path fill="url(#SVGID_5_)" stroke="#000000" stroke-linecap="round" stroke-linejoin="round" d="M180.2,371.34
		c13.93,19.01,30.53,7.91,30.53,7.91c-6.27,2.66-24.95,10.26-38.41-8.01c-15.18-20.58-0.92-39.9,14.05-39.9
		C186.37,331.33,159.22,342.71,180.2,371.34z"/>
	
		<linearGradient id="SVGID_6_" gradientUnits="userSpaceOnUse" x1="88.4048" y1="327.6733" x2="65.8256" y2="324.4472" gradientTransform="matrix(-0.3612 -0.9325 0.9325 -0.3612 -70.7961 549.7326)">
		<stop  offset="5.618000e-03" style="stop-color:#FFE596"/>
		<stop  offset="0.5449" style="stop-color:#FFFFFF"/>
		<stop  offset="1" style="stop-color:#FFE596"/>
	</linearGradient>
	<path fill="url(#SVGID_6_)" stroke="#000000" stroke-linecap="round" stroke-linejoin="round" d="M193.61,379.44
		c19.47,23.83,47.86,11.38,47.86,11.38c-16.25,10.62-39.14,13.78-55.7-7.4c-12.71-16.27-12.05-41.29,7.99-50.09
		C193.75,333.33,169.8,350.3,193.61,379.44z"/>
	
		<linearGradient id="SVGID_7_" gradientUnits="userSpaceOnUse" x1="127.5259" y1="282.8501" x2="109.1511" y2="278.4151" gradientTransform="matrix(-0.3612 -0.9325 0.9325 -0.3612 -70.7961 549.7326)">
		<stop  offset="5.618000e-03" style="stop-color:#FFE596"/>
		<stop  offset="0.5449" style="stop-color:#FFFFFF"/>
		<stop  offset="1" style="stop-color:#FFE596"/>
	</linearGradient>
	<path fill="url(#SVGID_7_)" stroke="#000000" stroke-linecap="round" stroke-linejoin="round" d="M158.17,358.03
		c-9.18-0.51-18.36-8.57-17.46-26.26c1.39-27.51-1.33-31.37-1.33-31.37s2.75-0.09,4.74,2.74c4.08,5.78,3.06,19.86,2.17,31.25
		C145.14,349.24,158.17,358.03,158.17,358.03z"/>
	<g>
		<path fill="none" stroke="#5BC5F2" stroke-width="4.7906" d="M149.75,167.21c7.33,16.67,2.67,72.67-23.33,101.33"/>
		<polygon fill="#5BC5F2" points="117.33,278.56 124.37,259.21 127.1,267.79 135.91,269.67 		"/>
	</g>
</g>
<g id="text">
	<text transform="matrix(1.1088 0 0 1 236.1875 66.8384)" font-family="Liberation Sans, Helvetica, Arial, sans-serif" font-size="16">Cell</text>
	<text transform="matrix(0.9654 0 0 1 236.1875 100.3384)" font-family="Liberation Sans, Helvetica, Arial, sans-serif" font-size="16">Nucleus</text>
	<text transform="matrix(1 0 0 1 237.1875 136.3384)"><tspan x="0" y="0" font-family="Liberation Sans, Helvetica, Arial, sans-serif" font-size="16">Chromosomes</tspan><tspan x="0" y="14" font-family="Liberation Sans, Helvetica, Arial, sans-serif" font-size="16">(23 pairs)</tspan></text>
	<text transform="matrix(1 0 0 1 251.6855 269.5513)" font-family="Liberation Sans, Helvetica, Arial, sans-serif" font-size="16">Gene</text>
	<g>
		<path fill="none" stroke="#0069B4" stroke-width="4.609" d="M0,190.71"/>
	</g>
	<line fill="none" stroke="#000000" x1="145.75" y1="131.54" x2="235.09" y2="131.54"/>
	<line fill="none" stroke="#000000" x1="194.94" y1="60.54" x2="232.09" y2="60.54"/>
	<line fill="none" stroke="#000000" x1="176.42" y1="94.54" x2="235.09" y2="94.54"/>
	<polyline fill="none" stroke="#000000" points="221.42,316.55 221.42,296.05 264.42,296.05 323.09,296.05 323.09,325.05 	"/>
	<line fill="none" stroke="#000000" x1="272.26" y1="273.05" x2="272.26" y2="296.05"/>
</g>
</svg>
